<svg class="svg-icon" style="width: 1em; height: 1em;vertical-align: middle;fill: currentColor;overflow: hidden;" viewBox="0 0 1024 1024" version="1.1" xmlns="http://www.w3.org/2000/svg"><path d="M795.2 160C744 62.4 640 0 528 0c-137.6 0-259.2 94.4-292.8 225.6-9.6-1.6-17.6-1.6-27.2-1.6-115.2 0-208 92.8-208 208s92.8 208 208 208h576c132.8 0 240-107.2 240-240 0-128-100.8-233.6-228.8-240zM784 576H208c-80 0-144-64-144-144s64-144 144-144c14.4 0 28.8 1.6 41.6 6.4l35.2 11.2 4.8-36.8C308.8 152 409.6 64 528 64c94.4 0 180.8 56 219.2 142.4l9.6 19.2 25.6-1.6h3.2c97.6 0 176 78.4 176 176-1.6 97.6-80 176-177.6 176zM393.6 777.6c-6.4 6.4-9.6 14.4-9.6 22.4 0 8 3.2 16 9.6 22.4 6.4 6.4 14.4 9.6 22.4 9.6 8 0 16-3.2 22.4-9.6 6.4-6.4 9.6-14.4 9.6-22.4 0-8-3.2-16-9.6-22.4-11.2-12.8-33.6-12.8-44.8 0zM288 768c8 0 16-3.2 22.4-9.6 6.4-6.4 9.6-14.4 9.6-22.4 0-8-3.2-16-9.6-22.4-12.8-11.2-33.6-11.2-44.8 0-6.4 4.8-9.6 14.4-9.6 22.4 0 8 3.2 16 9.6 22.4 6.4 6.4 14.4 9.6 22.4 9.6zM246.4 886.4c6.4-6.4 9.6-14.4 9.6-22.4 0-8-3.2-16-9.6-22.4-12.8-11.2-33.6-11.2-44.8 0-6.4 4.8-9.6 14.4-9.6 22.4 0 8 3.2 16 9.6 22.4 6.4 6.4 14.4 9.6 22.4 9.6 8 0 16-3.2 22.4-9.6zM265.6 1014.4c6.4 6.4 14.4 9.6 22.4 9.6 8 0 16-3.2 22.4-9.6 6.4-6.4 9.6-14.4 9.6-22.4 0-8-3.2-16-9.6-22.4-12.8-11.2-33.6-11.2-44.8 0-6.4 4.8-9.6 14.4-9.6 22.4 0 8 3.2 16 9.6 22.4zM416 928c0 8 3.2 16 9.6 22.4 6.4 6.4 14.4 9.6 22.4 9.6 8 0 16-3.2 22.4-9.6 6.4-6.4 9.6-14.4 9.6-22.4 0-8-3.2-16-9.6-22.4-12.8-11.2-33.6-11.2-44.8 0-6.4 4.8-9.6 14.4-9.6 22.4zM553.6 841.6c-6.4 4.8-9.6 14.4-9.6 22.4 0 8 3.2 16 9.6 22.4 6.4 6.4 14.4 9.6 22.4 9.6 8 0 16-3.2 22.4-9.6 6.4-6.4 9.6-14.4 9.6-22.4 0-8-3.2-16-9.6-22.4-11.2-12.8-33.6-12.8-44.8 0zM630.4 713.6c-12.8-11.2-33.6-11.2-44.8 0-6.4 4.8-9.6 14.4-9.6 22.4 0 8 3.2 16 9.6 22.4 6.4 6.4 14.4 9.6 22.4 9.6 8 0 16-3.2 22.4-9.6 6.4-6.4 9.6-14.4 9.6-22.4 0-8-3.2-17.6-9.6-22.4zM790.4 790.4c6.4-6.4 9.6-14.4 9.6-22.4 0-8-3.2-16-9.6-22.4-12.8-11.2-33.6-11.2-44.8 0-6.4 4.8-9.6 12.8-9.6 22.4 0 8 3.2 16 9.6 22.4 6.4 6.4 14.4 9.6 22.4 9.6 8 0 16-3.2 22.4-9.6zM713.6 905.6c-6.4 4.8-9.6 14.4-9.6 22.4 0 8 3.2 16 9.6 22.4 6.4 6.4 14.4 9.6 22.4 9.6 8 0 16-3.2 22.4-9.6 6.4-6.4 9.6-14.4 9.6-22.4 0-8-3.2-16-9.6-22.4-11.2-12.8-33.6-12.8-44.8 0zM585.6 969.6c-6.4 4.8-9.6 14.4-9.6 22.4 0 8 3.2 16 9.6 22.4 6.4 6.4 14.4 9.6 22.4 9.6 8 0 16-3.2 22.4-9.6 6.4-6.4 9.6-14.4 9.6-22.4 0-8-3.2-16-9.6-22.4-11.2-12.8-33.6-12.8-44.8 0z"  /></svg>