<svg class="svg-icon" style="width: 1.0009765625em; height: 1em;vertical-align: middle;fill: currentColor;overflow: hidden;" viewBox="0 0 1025 1024" version="1.1" xmlns="http://www.w3.org/2000/svg"><path d="M863.961088 737.1776C874.917888 741.888 877.375488 750.592 871.026688 763.2896 864.677888 769.536 859.148288 772.7104 854.437888 772.7104L849.727488 772.7104 844.914688 770.3552 683.737088 675.5328l0 120.9344c0 12.6976-6.3488 18.944-18.944 18.944-12.5952 0-18.944-6.2464-18.944-18.944L645.849088 654.2336 456.204288 545.1776l0 220.4672 123.2896 71.168C590.553088 841.5232 592.908288 850.2272 586.559488 862.8224c-4.7104 6.3488-10.24 9.5232-16.5888 9.5232-4.7104 0-7.8848-0.8192-9.5232-2.3552L456.204288 810.7008l0 194.3552C456.204288 1017.7536 449.855488 1024 437.260288 1024S418.316288 1017.7536 418.316288 1005.056L418.316288 810.7008 313.970688 869.888C312.434688 871.5264 309.260288 872.3456 304.549888 872.3456c-6.3488 0-11.8784-3.1744-16.5888-9.5232C281.612288 850.2272 283.967488 841.5232 295.026688 836.7104l123.2896-71.168L418.316288 545.1776 228.671488 654.2336l0 161.1776c0 12.6976-6.3488 18.944-18.944 18.944-12.5952 0-18.944-6.2464-18.944-18.944L190.783488 675.5328 29.503488 770.3552 24.793088 772.7104 20.082688 772.7104c-4.7104 0-10.24-3.1744-16.5888-9.5232-6.3488-12.5952-3.9936-21.2992 7.168-26.112l158.8224-92.4672L67.493888 585.5232c-11.0592-4.7104-13.4144-13.4144-7.168-26.112C65.138688 548.352 73.740288 545.9968 86.437888 552.3456l120.9344 71.0656L399.269888 512 207.269888 402.944 86.437888 471.7568C84.799488 473.2928 81.727488 474.112 76.914688 474.112c-6.3488 0-11.8784-3.1744-16.5888-9.5232-6.3488-12.5952-3.9936-21.2992 7.168-26.112l101.888-59.2896L10.559488 286.8224c-11.0592-4.7104-13.4144-13.4144-7.168-26.112C9.740288 251.2896 18.444288 248.9344 29.503488 253.6448l161.1776 94.8224L190.681088 208.5888c0-12.5952 6.3488-18.944 18.944-18.944 12.5952 0 18.944 6.3488 18.944 18.944l0 161.1776 189.6448 109.056L418.213888 258.3552 295.026688 187.2896C283.967488 182.4768 281.612288 173.8752 287.858688 161.1776c4.7104-11.0592 13.4144-13.4144 26.112-7.0656l104.2432 59.2896L418.213888 18.944C418.316288 6.3488 424.562688 0 437.260288 0s18.944 6.3488 18.944 18.944l0 194.3552 104.3456-59.2896c12.5952-6.2464 21.2992-3.8912 26.112 7.0656C592.908288 173.8752 590.553088 182.4768 579.493888 187.2896L456.204288 258.3552l0 220.4672 189.6448-109.056L645.849088 208.5888c0-12.5952 6.3488-18.944 18.944-18.944 12.5952 0 18.944 6.3488 18.944 18.944l0 139.8784 161.1776-94.8224c11.0592-4.7104 19.7632-2.3552 26.112 7.0656C877.375488 273.408 874.917888 282.112 863.961088 286.8224L705.138688 379.2896l101.888 59.2896C818.085888 443.2896 820.441088 451.9936 814.092288 464.5888 809.381888 470.9376 803.852288 474.112 797.503488 474.112c-4.7104 0-7.8848-0.8192-9.5232-2.3552L667.148288 402.944 475.148288 512l192 109.056 120.9344-68.7104C800.677888 545.9968 809.381888 548.352 814.092288 559.4112c6.3488 12.6976 3.9936 21.2992-7.0656 26.112L705.138688 644.7104 863.961088 737.1776z"  /></svg>