<svg class="svg-icon" style="width: 1em; height: 1em;vertical-align: middle;fill: currentColor;overflow: hidden;" viewBox="0 0 1024 1024" version="1.1" xmlns="http://www.w3.org/2000/svg"><path d="M767.734519 510.645503c0 143.407137-115.977481 259.660935-259.040034 259.660935S249.654451 654.054265 249.654451 510.645503 365.63139 250.984025 508.695026 250.984025s259.039492 116.255966 259.039493 259.661478z m-258.979895-212.123497c-117.295137 0-212.385185 95.211412-212.385185 212.661503s95.091674 212.66367 212.385185 212.66367 212.385185-95.215746 212.385186-212.66367-95.085714-212.659877-212.384644-212.659877z" fill="#7D7D7D" /><path d="M511.187302 44.969312a18.962963 18.962963 0 0 1 18.962963 18.962963v139.022358a18.962963 18.962963 0 1 1-37.925926 0V63.932275a18.962963 18.962963 0 0 1 18.962963-18.962963z m0 754.406265a21.125283 21.125283 0 0 1 21.122573 21.12474v134.696635a21.122574 21.122574 0 1 1-42.245147 0V820.500317a21.124741 21.124741 0 0 1 21.122574-21.12474z m0 0a21.125283 21.125283 0 0 1 21.122573 21.12474v134.696635a21.122574 21.122574 0 1 1-42.245147 0V820.500317a21.124741 21.124741 0 0 1 21.122574-21.12474zM293.968186 291.260275a18.962963 18.962963 0 0 1-26.819047 26.819048L168.846764 219.774239a18.962963 18.962963 0 0 1 26.819048-26.819047m98.288287 526.651327l0.010836 0.010835a21.119323 21.119323 0 0 1 0 29.869376l-95.248254 95.253672a21.130159 21.130159 0 0 1-29.872084 0l-0.010294-0.010836a21.126366 21.126366 0 0 1 0-29.874794l95.248254-95.248253a21.117697 21.117697 0 0 1 29.871542 0z m435.534832-428.266058a18.966214 18.966214 0 1 0 26.819048 26.825008l98.304-98.33109a18.966214 18.966214 0 0 0-26.819048-26.825008m-98.287746 526.797613l-0.010836 0.010836a21.130159 21.130159 0 0 0 0 29.880212l95.248254 95.275344a21.114447 21.114447 0 0 0 29.869376 0l0.010836-0.010836a21.130159 21.130159 0 0 0 0-29.880212l-95.248254-95.275344a21.114447 21.114447 0 0 0-29.869376 0zM57.430688 491.41164h139.242328a18.962963 18.962963 0 0 1 0 37.925926H57.430688a18.962963 18.962963 0 0 1 0-37.925926z m758.518518 1.625397h139.242328a18.962963 18.962963 0 0 1 0 37.925926h-139.242328a18.962963 18.962963 0 0 1 0-37.925926z" fill="#F7CA19" /></svg>