<svg class="svg-icon" style="width: 1em; height: 1em;vertical-align: middle;fill: currentColor;overflow: hidden;" viewBox="0 0 1024 1024" version="1.1" xmlns="http://www.w3.org/2000/svg"><path d="M906.7474848 705.5970432c-31.97047147 38.44316373-79.08241813 68.7896832-134.67821333 68.7896832h-63.940944c-7.40891947-1.9013536-16.3955584-6.2993152-16.3955584-16.4822464 0-11.00935467 9.7205952-14.81784 17.27399466-16.11815787h46.38954774c50.48699307 0 93.2645472-26.35888 122.29919146-59.75681066 29.3582784-31.50235733 42.3730112-73.02004907 42.37301227-118.53116054 0-98.46755093-74.07186133-171.26568-173.36988267-171.82741653-43.71378347-0.24734933-75.68425493 18.764448-100.27470293 30.1823904C631.8141408 333.3074848 564.95470613 238.6443744 451.90799573 237.7405088c-113.4420064-0.90559893-184.02092693 105.87473707-184.02092693 208.25190933 0 2.19609173 0.05432427 4.37889173 0.13349973 6.55591147h-0.13349973c-71.2868704 0-132.74449707 31.12555413-152.69252267 93.01257493a59.20836587 59.20836587 0 0 0-3.63164266 13.453952c-2.2088064 10.0789056-6.4929184 29.3524992-4.5846304 48.15797867 5.8635648 57.81500373 28.20244053 88.04016107 75.51434773 114.26034027 18.50958613 11.5930528 38.67953173 19.17534827 58.55185067 20.35430293h25.22037866c6.46517867 1.30031787 15.71303573 5.21282773 16.30135787 16.98503573 0.4790944 9.5818944-6.452464 13.77180693-12.75235733 15.61536747h-53.4973728c-21.88347627-1.35810987-44.0952096-10.0846848-64.47667414-23.42883093-52.10169813-30.18470293-87.15016533-86.51445547-87.1501664-151.02753814a175.0516256 175.0516256 0 0 1 3.71833067-35.94655466 70.63786773 70.63786773 0 0 1 3.9986208-15.48822507c21.96669653-71.2435264 88.3637952-123.02043413 166.86193707-123.02043413h0.1473696c-0.08726613-2.505856-0.1473696-5.0192256-0.1473696-7.54646507 0-117.8521056 95.6062752-213.38960853 213.54102293-213.38960853 106.52894187 0 189.59899947 65.27651413 212.93536427 169.02162133 27.08705707-13.1447648 55.4628736-18.71359147 87.59516373-18.71359147 113.43391573 0 205.38658773 100.94451093 205.38658773 214.29636267a204.3815872 204.3815872 0 0 1-51.97917973 136.4524256z" fill="#7D7D7D" /><path d="M525.2921344 790.556896s-41.114304 73.41881387-61.25940053 102.29164053c-19.71223467 28.24867413 18.4887808 44.2628064 36.40888853 17.33756587 19.12911467-28.73990507 58.65876587-101.13580267 66.46066987-115.005856s8.4260576-38.63965547-23.69467307-38.43160427c-32.5166048 0.2080512-92.46701973 0.28895893-92.46701973 0.28895894s26.3138016-62.5250432 42.7659968-101.1358016c13.2430112-31.0804768-20.51611947-50.07666987-41.03224-9.24670294-18.97249813 37.7612192-31.5942464 65.18346987-48.54518507 108.07082987-7.26444053 18.37781973-13.0031744 35.25305067 19.07132267 35.25305067 30.3528768 0 104.48773227-2.07472853 102.29164053 0.57791893z" fill="#FFF100" /><path d="M359.28493867 776.0222368c6.910176 3.98764053 9.64199893 12.19408853 6.10108906 18.32580693l-29.65475093 51.36542934c-3.5409088 6.13171947-12.0132 7.87125547-18.923376 3.87783573s-9.64199893-12.19408853-6.10108907-18.325808l29.65475094-51.36542933c3.54033067-6.13171947 12.0132-7.87125547 18.923376-3.87783467z m280.86857066 5.20126933c6.91190933 3.98764053 9.6396864 12.19408853 6.10282347 18.32580694l-29.6587968 51.36542933c-3.536864 6.13171947-12.00915413 7.87125547-18.92106347 3.87783573s-9.6396864-12.19408853-6.10282346-18.32580693l29.6587968-51.36542933c3.536864-6.13171947 12.00915413-7.87125547 18.92106346-3.87783574z" fill="#7ECEF4" /></svg>